%TF.GenerationSoftware,KiCad,Pcbnew,(6.0.0)*%
%TF.CreationDate,2022-03-13T19:40:46-04:00*%
%TF.ProjectId,TIB-Clone,5449422d-436c-46f6-9e65-2e6b69636164,rev?*%
%TF.SameCoordinates,Original*%
%TF.FileFunction,Legend,Bot*%
%TF.FilePolarity,Positive*%
%FSLAX46Y46*%
G04 Gerber Fmt 4.6, Leading zero omitted, Abs format (unit mm)*
G04 Created by KiCad (PCBNEW (6.0.0)) date 2022-03-13 19:40:46*
%MOMM*%
%LPD*%
G01*
G04 APERTURE LIST*
%ADD10C,0.150000*%
%ADD11C,1.600000*%
%ADD12O,1.600000X1.600000*%
%ADD13R,8.300000X58.420000*%
%ADD14R,8.000000X1.524000*%
%ADD15R,1.600000X1.600000*%
%ADD16R,1.700000X1.700000*%
%ADD17O,1.700000X1.700000*%
%ADD18C,1.500000*%
%ADD19R,1.422400X1.422400*%
%ADD20C,1.422400*%
G04 APERTURE END LIST*
D10*
X160678761Y-57795238D02*
X160726380Y-57938095D01*
X160726380Y-58176190D01*
X160678761Y-58271428D01*
X160631142Y-58319047D01*
X160535904Y-58366666D01*
X160440666Y-58366666D01*
X160345428Y-58319047D01*
X160297809Y-58271428D01*
X160250190Y-58176190D01*
X160202571Y-57985714D01*
X160154952Y-57890476D01*
X160107333Y-57842857D01*
X160012095Y-57795238D01*
X159916857Y-57795238D01*
X159821619Y-57842857D01*
X159774000Y-57890476D01*
X159726380Y-57985714D01*
X159726380Y-58223809D01*
X159774000Y-58366666D01*
X160059714Y-58700000D02*
X160726380Y-58890476D01*
X160250190Y-59080952D01*
X160726380Y-59271428D01*
X160059714Y-59461904D01*
X160726380Y-59842857D02*
X160059714Y-59842857D01*
X159726380Y-59842857D02*
X159774000Y-59795238D01*
X159821619Y-59842857D01*
X159774000Y-59890476D01*
X159726380Y-59842857D01*
X159821619Y-59842857D01*
X160059714Y-60176190D02*
X160059714Y-60557142D01*
X159726380Y-60319047D02*
X160583523Y-60319047D01*
X160678761Y-60366666D01*
X160726380Y-60461904D01*
X160726380Y-60557142D01*
X160678761Y-61319047D02*
X160726380Y-61223809D01*
X160726380Y-61033333D01*
X160678761Y-60938095D01*
X160631142Y-60890476D01*
X160535904Y-60842857D01*
X160250190Y-60842857D01*
X160154952Y-60890476D01*
X160107333Y-60938095D01*
X160059714Y-61033333D01*
X160059714Y-61223809D01*
X160107333Y-61319047D01*
X160726380Y-61747619D02*
X159726380Y-61747619D01*
X160726380Y-62176190D02*
X160202571Y-62176190D01*
X160107333Y-62128571D01*
X160059714Y-62033333D01*
X160059714Y-61890476D01*
X160107333Y-61795238D01*
X160154952Y-61747619D01*
X160059714Y-63271428D02*
X160059714Y-63652380D01*
X160726380Y-63414285D02*
X159869238Y-63414285D01*
X159774000Y-63461904D01*
X159726380Y-63557142D01*
X159726380Y-63652380D01*
X160726380Y-63985714D02*
X160059714Y-63985714D01*
X160250190Y-63985714D02*
X160154952Y-64033333D01*
X160107333Y-64080952D01*
X160059714Y-64176190D01*
X160059714Y-64271428D01*
X160726380Y-64747619D02*
X160678761Y-64652380D01*
X160631142Y-64604761D01*
X160535904Y-64557142D01*
X160250190Y-64557142D01*
X160154952Y-64604761D01*
X160107333Y-64652380D01*
X160059714Y-64747619D01*
X160059714Y-64890476D01*
X160107333Y-64985714D01*
X160154952Y-65033333D01*
X160250190Y-65080952D01*
X160535904Y-65080952D01*
X160631142Y-65033333D01*
X160678761Y-64985714D01*
X160726380Y-64890476D01*
X160726380Y-64747619D01*
X160726380Y-65509523D02*
X160059714Y-65509523D01*
X160154952Y-65509523D02*
X160107333Y-65557142D01*
X160059714Y-65652380D01*
X160059714Y-65795238D01*
X160107333Y-65890476D01*
X160202571Y-65938095D01*
X160726380Y-65938095D01*
X160202571Y-65938095D02*
X160107333Y-65985714D01*
X160059714Y-66080952D01*
X160059714Y-66223809D01*
X160107333Y-66319047D01*
X160202571Y-66366666D01*
X160726380Y-66366666D01*
X160726380Y-67604761D02*
X159726380Y-67604761D01*
X159726380Y-67842857D01*
X159774000Y-67985714D01*
X159869238Y-68080952D01*
X159964476Y-68128571D01*
X160154952Y-68176190D01*
X160297809Y-68176190D01*
X160488285Y-68128571D01*
X160583523Y-68080952D01*
X160678761Y-67985714D01*
X160726380Y-67842857D01*
X160726380Y-67604761D01*
X160678761Y-68557142D02*
X160726380Y-68700000D01*
X160726380Y-68938095D01*
X160678761Y-69033333D01*
X160631142Y-69080952D01*
X160535904Y-69128571D01*
X160440666Y-69128571D01*
X160345428Y-69080952D01*
X160297809Y-69033333D01*
X160250190Y-68938095D01*
X160202571Y-68747619D01*
X160154952Y-68652380D01*
X160107333Y-68604761D01*
X160012095Y-68557142D01*
X159916857Y-68557142D01*
X159821619Y-68604761D01*
X159774000Y-68652380D01*
X159726380Y-68747619D01*
X159726380Y-68985714D01*
X159774000Y-69128571D01*
X159726380Y-69747619D02*
X159726380Y-69842857D01*
X159774000Y-69938095D01*
X159821619Y-69985714D01*
X159916857Y-70033333D01*
X160107333Y-70080952D01*
X160345428Y-70080952D01*
X160535904Y-70033333D01*
X160631142Y-69985714D01*
X160678761Y-69938095D01*
X160726380Y-69842857D01*
X160726380Y-69747619D01*
X160678761Y-69652380D01*
X160631142Y-69604761D01*
X160535904Y-69557142D01*
X160345428Y-69509523D01*
X160107333Y-69509523D01*
X159916857Y-69557142D01*
X159821619Y-69604761D01*
X159774000Y-69652380D01*
X159726380Y-69747619D01*
X160059714Y-71128571D02*
X160059714Y-71509523D01*
X159726380Y-71271428D02*
X160583523Y-71271428D01*
X160678761Y-71319047D01*
X160726380Y-71414285D01*
X160726380Y-71509523D01*
X160726380Y-71985714D02*
X160678761Y-71890476D01*
X160631142Y-71842857D01*
X160535904Y-71795238D01*
X160250190Y-71795238D01*
X160154952Y-71842857D01*
X160107333Y-71890476D01*
X160059714Y-71985714D01*
X160059714Y-72128571D01*
X160107333Y-72223809D01*
X160154952Y-72271428D01*
X160250190Y-72319047D01*
X160535904Y-72319047D01*
X160631142Y-72271428D01*
X160678761Y-72223809D01*
X160726380Y-72128571D01*
X160726380Y-71985714D01*
X160726380Y-73509523D02*
X159726380Y-73509523D01*
X159726380Y-73747619D01*
X159774000Y-73890476D01*
X159869238Y-73985714D01*
X159964476Y-74033333D01*
X160154952Y-74080952D01*
X160297809Y-74080952D01*
X160488285Y-74033333D01*
X160583523Y-73985714D01*
X160678761Y-73890476D01*
X160726380Y-73747619D01*
X160726380Y-73509523D01*
X160678761Y-74461904D02*
X160726380Y-74604761D01*
X160726380Y-74842857D01*
X160678761Y-74938095D01*
X160631142Y-74985714D01*
X160535904Y-75033333D01*
X160440666Y-75033333D01*
X160345428Y-74985714D01*
X160297809Y-74938095D01*
X160250190Y-74842857D01*
X160202571Y-74652380D01*
X160154952Y-74557142D01*
X160107333Y-74509523D01*
X160012095Y-74461904D01*
X159916857Y-74461904D01*
X159821619Y-74509523D01*
X159774000Y-74557142D01*
X159726380Y-74652380D01*
X159726380Y-74890476D01*
X159774000Y-75033333D01*
X160726380Y-75985714D02*
X160726380Y-75414285D01*
X160726380Y-75700000D02*
X159726380Y-75700000D01*
X159869238Y-75604761D01*
X159964476Y-75509523D01*
X160012095Y-75414285D01*
X160059714Y-77080952D02*
X160726380Y-77271428D01*
X160250190Y-77461904D01*
X160726380Y-77652380D01*
X160059714Y-77842857D01*
X160726380Y-78223809D02*
X160059714Y-78223809D01*
X159726380Y-78223809D02*
X159774000Y-78176190D01*
X159821619Y-78223809D01*
X159774000Y-78271428D01*
X159726380Y-78223809D01*
X159821619Y-78223809D01*
X160059714Y-78557142D02*
X160059714Y-78938095D01*
X159726380Y-78700000D02*
X160583523Y-78700000D01*
X160678761Y-78747619D01*
X160726380Y-78842857D01*
X160726380Y-78938095D01*
X160726380Y-79271428D02*
X159726380Y-79271428D01*
X160726380Y-79700000D02*
X160202571Y-79700000D01*
X160107333Y-79652380D01*
X160059714Y-79557142D01*
X160059714Y-79414285D01*
X160107333Y-79319047D01*
X160154952Y-79271428D01*
X160726380Y-80319047D02*
X160678761Y-80223809D01*
X160631142Y-80176190D01*
X160535904Y-80128571D01*
X160250190Y-80128571D01*
X160154952Y-80176190D01*
X160107333Y-80223809D01*
X160059714Y-80319047D01*
X160059714Y-80461904D01*
X160107333Y-80557142D01*
X160154952Y-80604761D01*
X160250190Y-80652380D01*
X160535904Y-80652380D01*
X160631142Y-80604761D01*
X160678761Y-80557142D01*
X160726380Y-80461904D01*
X160726380Y-80319047D01*
X160059714Y-81509523D02*
X160726380Y-81509523D01*
X160059714Y-81080952D02*
X160583523Y-81080952D01*
X160678761Y-81128571D01*
X160726380Y-81223809D01*
X160726380Y-81366666D01*
X160678761Y-81461904D01*
X160631142Y-81509523D01*
X160059714Y-81842857D02*
X160059714Y-82223809D01*
X159726380Y-81985714D02*
X160583523Y-81985714D01*
X160678761Y-82033333D01*
X160726380Y-82128571D01*
X160726380Y-82223809D01*
X160726380Y-83747619D02*
X160202571Y-83747619D01*
X160107333Y-83700000D01*
X160059714Y-83604761D01*
X160059714Y-83414285D01*
X160107333Y-83319047D01*
X160678761Y-83747619D02*
X160726380Y-83652380D01*
X160726380Y-83414285D01*
X160678761Y-83319047D01*
X160583523Y-83271428D01*
X160488285Y-83271428D01*
X160393047Y-83319047D01*
X160345428Y-83414285D01*
X160345428Y-83652380D01*
X160297809Y-83747619D01*
X160059714Y-84842857D02*
X160059714Y-85223809D01*
X159726380Y-84985714D02*
X160583523Y-84985714D01*
X160678761Y-85033333D01*
X160726380Y-85128571D01*
X160726380Y-85223809D01*
X160059714Y-85461904D02*
X160726380Y-85652380D01*
X160250190Y-85842857D01*
X160726380Y-86033333D01*
X160059714Y-86223809D01*
X160726380Y-86604761D02*
X160059714Y-86604761D01*
X159726380Y-86604761D02*
X159774000Y-86557142D01*
X159821619Y-86604761D01*
X159774000Y-86652380D01*
X159726380Y-86604761D01*
X159821619Y-86604761D01*
X160678761Y-87033333D02*
X160726380Y-87128571D01*
X160726380Y-87319047D01*
X160678761Y-87414285D01*
X160583523Y-87461904D01*
X160535904Y-87461904D01*
X160440666Y-87414285D01*
X160393047Y-87319047D01*
X160393047Y-87176190D01*
X160345428Y-87080952D01*
X160250190Y-87033333D01*
X160202571Y-87033333D01*
X160107333Y-87080952D01*
X160059714Y-87176190D01*
X160059714Y-87319047D01*
X160107333Y-87414285D01*
X160059714Y-87747619D02*
X160059714Y-88128571D01*
X159726380Y-87890476D02*
X160583523Y-87890476D01*
X160678761Y-87938095D01*
X160726380Y-88033333D01*
X160726380Y-88128571D01*
X160678761Y-88842857D02*
X160726380Y-88747619D01*
X160726380Y-88557142D01*
X160678761Y-88461904D01*
X160583523Y-88414285D01*
X160202571Y-88414285D01*
X160107333Y-88461904D01*
X160059714Y-88557142D01*
X160059714Y-88747619D01*
X160107333Y-88842857D01*
X160202571Y-88890476D01*
X160297809Y-88890476D01*
X160393047Y-88414285D01*
X160726380Y-89747619D02*
X159726380Y-89747619D01*
X160678761Y-89747619D02*
X160726380Y-89652380D01*
X160726380Y-89461904D01*
X160678761Y-89366666D01*
X160631142Y-89319047D01*
X160535904Y-89271428D01*
X160250190Y-89271428D01*
X160154952Y-89319047D01*
X160107333Y-89366666D01*
X160059714Y-89461904D01*
X160059714Y-89652380D01*
X160107333Y-89747619D01*
X160678761Y-91414285D02*
X160726380Y-91319047D01*
X160726380Y-91128571D01*
X160678761Y-91033333D01*
X160631142Y-90985714D01*
X160535904Y-90938095D01*
X160250190Y-90938095D01*
X160154952Y-90985714D01*
X160107333Y-91033333D01*
X160059714Y-91128571D01*
X160059714Y-91319047D01*
X160107333Y-91414285D01*
X160726380Y-92271428D02*
X160202571Y-92271428D01*
X160107333Y-92223809D01*
X160059714Y-92128571D01*
X160059714Y-91938095D01*
X160107333Y-91842857D01*
X160678761Y-92271428D02*
X160726380Y-92176190D01*
X160726380Y-91938095D01*
X160678761Y-91842857D01*
X160583523Y-91795238D01*
X160488285Y-91795238D01*
X160393047Y-91842857D01*
X160345428Y-91938095D01*
X160345428Y-92176190D01*
X160297809Y-92271428D01*
X160726380Y-92747619D02*
X159726380Y-92747619D01*
X160107333Y-92747619D02*
X160059714Y-92842857D01*
X160059714Y-93033333D01*
X160107333Y-93128571D01*
X160154952Y-93176190D01*
X160250190Y-93223809D01*
X160535904Y-93223809D01*
X160631142Y-93176190D01*
X160678761Y-93128571D01*
X160726380Y-93033333D01*
X160726380Y-92842857D01*
X160678761Y-92747619D01*
X160726380Y-93795238D02*
X160678761Y-93700000D01*
X160583523Y-93652380D01*
X159726380Y-93652380D01*
X160678761Y-94557142D02*
X160726380Y-94461904D01*
X160726380Y-94271428D01*
X160678761Y-94176190D01*
X160583523Y-94128571D01*
X160202571Y-94128571D01*
X160107333Y-94176190D01*
X160059714Y-94271428D01*
X160059714Y-94461904D01*
X160107333Y-94557142D01*
X160202571Y-94604761D01*
X160297809Y-94604761D01*
X160393047Y-94128571D01*
X166763571Y-61644095D02*
X166811190Y-61786952D01*
X166858809Y-61834571D01*
X166954047Y-61882190D01*
X167096904Y-61882190D01*
X167192142Y-61834571D01*
X167239761Y-61786952D01*
X167287380Y-61691714D01*
X167287380Y-61310761D01*
X166287380Y-61310761D01*
X166287380Y-61644095D01*
X166335000Y-61739333D01*
X166382619Y-61786952D01*
X166477857Y-61834571D01*
X166573095Y-61834571D01*
X166668333Y-61786952D01*
X166715952Y-61739333D01*
X166763571Y-61644095D01*
X166763571Y-61310761D01*
X167287380Y-62739333D02*
X166763571Y-62739333D01*
X166668333Y-62691714D01*
X166620714Y-62596476D01*
X166620714Y-62406000D01*
X166668333Y-62310761D01*
X167239761Y-62739333D02*
X167287380Y-62644095D01*
X167287380Y-62406000D01*
X167239761Y-62310761D01*
X167144523Y-62263142D01*
X167049285Y-62263142D01*
X166954047Y-62310761D01*
X166906428Y-62406000D01*
X166906428Y-62644095D01*
X166858809Y-62739333D01*
X167239761Y-63167904D02*
X167287380Y-63263142D01*
X167287380Y-63453619D01*
X167239761Y-63548857D01*
X167144523Y-63596476D01*
X167096904Y-63596476D01*
X167001666Y-63548857D01*
X166954047Y-63453619D01*
X166954047Y-63310761D01*
X166906428Y-63215523D01*
X166811190Y-63167904D01*
X166763571Y-63167904D01*
X166668333Y-63215523D01*
X166620714Y-63310761D01*
X166620714Y-63453619D01*
X166668333Y-63548857D01*
X167239761Y-64406000D02*
X167287380Y-64310761D01*
X167287380Y-64120285D01*
X167239761Y-64025047D01*
X167144523Y-63977428D01*
X166763571Y-63977428D01*
X166668333Y-64025047D01*
X166620714Y-64120285D01*
X166620714Y-64310761D01*
X166668333Y-64406000D01*
X166763571Y-64453619D01*
X166858809Y-64453619D01*
X166954047Y-63977428D01*
X167287380Y-65310761D02*
X166287380Y-65310761D01*
X167239761Y-65310761D02*
X167287380Y-65215523D01*
X167287380Y-65025047D01*
X167239761Y-64929809D01*
X167192142Y-64882190D01*
X167096904Y-64834571D01*
X166811190Y-64834571D01*
X166715952Y-64882190D01*
X166668333Y-64929809D01*
X166620714Y-65025047D01*
X166620714Y-65215523D01*
X166668333Y-65310761D01*
X167287380Y-66691714D02*
X167239761Y-66596476D01*
X167192142Y-66548857D01*
X167096904Y-66501238D01*
X166811190Y-66501238D01*
X166715952Y-66548857D01*
X166668333Y-66596476D01*
X166620714Y-66691714D01*
X166620714Y-66834571D01*
X166668333Y-66929809D01*
X166715952Y-66977428D01*
X166811190Y-67025047D01*
X167096904Y-67025047D01*
X167192142Y-66977428D01*
X167239761Y-66929809D01*
X167287380Y-66834571D01*
X167287380Y-66691714D01*
X166620714Y-67453619D02*
X167287380Y-67453619D01*
X166715952Y-67453619D02*
X166668333Y-67501238D01*
X166620714Y-67596476D01*
X166620714Y-67739333D01*
X166668333Y-67834571D01*
X166763571Y-67882190D01*
X167287380Y-67882190D01*
X166620714Y-69025047D02*
X167287380Y-69215523D01*
X166811190Y-69406000D01*
X167287380Y-69596476D01*
X166620714Y-69786952D01*
X167287380Y-70310761D02*
X167239761Y-70215523D01*
X167192142Y-70167904D01*
X167096904Y-70120285D01*
X166811190Y-70120285D01*
X166715952Y-70167904D01*
X166668333Y-70215523D01*
X166620714Y-70310761D01*
X166620714Y-70453619D01*
X166668333Y-70548857D01*
X166715952Y-70596476D01*
X166811190Y-70644095D01*
X167096904Y-70644095D01*
X167192142Y-70596476D01*
X167239761Y-70548857D01*
X167287380Y-70453619D01*
X167287380Y-70310761D01*
X167287380Y-71072666D02*
X166620714Y-71072666D01*
X166811190Y-71072666D02*
X166715952Y-71120285D01*
X166668333Y-71167904D01*
X166620714Y-71263142D01*
X166620714Y-71358380D01*
X167287380Y-71691714D02*
X166287380Y-71691714D01*
X166906428Y-71786952D02*
X167287380Y-72072666D01*
X166620714Y-72072666D02*
X167001666Y-71691714D01*
X166620714Y-73120285D02*
X166620714Y-73501238D01*
X167287380Y-73263142D02*
X166430238Y-73263142D01*
X166335000Y-73310761D01*
X166287380Y-73406000D01*
X166287380Y-73501238D01*
X167287380Y-73834571D02*
X166620714Y-73834571D01*
X166811190Y-73834571D02*
X166715952Y-73882190D01*
X166668333Y-73929809D01*
X166620714Y-74025047D01*
X166620714Y-74120285D01*
X167287380Y-74596476D02*
X167239761Y-74501238D01*
X167192142Y-74453619D01*
X167096904Y-74406000D01*
X166811190Y-74406000D01*
X166715952Y-74453619D01*
X166668333Y-74501238D01*
X166620714Y-74596476D01*
X166620714Y-74739333D01*
X166668333Y-74834571D01*
X166715952Y-74882190D01*
X166811190Y-74929809D01*
X167096904Y-74929809D01*
X167192142Y-74882190D01*
X167239761Y-74834571D01*
X167287380Y-74739333D01*
X167287380Y-74596476D01*
X167287380Y-75358380D02*
X166620714Y-75358380D01*
X166715952Y-75358380D02*
X166668333Y-75406000D01*
X166620714Y-75501238D01*
X166620714Y-75644095D01*
X166668333Y-75739333D01*
X166763571Y-75786952D01*
X167287380Y-75786952D01*
X166763571Y-75786952D02*
X166668333Y-75834571D01*
X166620714Y-75929809D01*
X166620714Y-76072666D01*
X166668333Y-76167904D01*
X166763571Y-76215523D01*
X167287380Y-76215523D01*
X167239761Y-77406000D02*
X167287380Y-77548857D01*
X167287380Y-77786952D01*
X167239761Y-77882190D01*
X167192142Y-77929809D01*
X167096904Y-77977428D01*
X167001666Y-77977428D01*
X166906428Y-77929809D01*
X166858809Y-77882190D01*
X166811190Y-77786952D01*
X166763571Y-77596476D01*
X166715952Y-77501238D01*
X166668333Y-77453619D01*
X166573095Y-77406000D01*
X166477857Y-77406000D01*
X166382619Y-77453619D01*
X166335000Y-77501238D01*
X166287380Y-77596476D01*
X166287380Y-77834571D01*
X166335000Y-77977428D01*
X166620714Y-78263142D02*
X166620714Y-78644095D01*
X166287380Y-78406000D02*
X167144523Y-78406000D01*
X167239761Y-78453619D01*
X167287380Y-78548857D01*
X167287380Y-78644095D01*
X167239761Y-79358380D02*
X167287380Y-79263142D01*
X167287380Y-79072666D01*
X167239761Y-78977428D01*
X167144523Y-78929809D01*
X166763571Y-78929809D01*
X166668333Y-78977428D01*
X166620714Y-79072666D01*
X166620714Y-79263142D01*
X166668333Y-79358380D01*
X166763571Y-79406000D01*
X166858809Y-79406000D01*
X166954047Y-78929809D01*
X166620714Y-79739333D02*
X167287380Y-79977428D01*
X166620714Y-80215523D01*
X167239761Y-80977428D02*
X167287380Y-80882190D01*
X167287380Y-80691714D01*
X167239761Y-80596476D01*
X167144523Y-80548857D01*
X166763571Y-80548857D01*
X166668333Y-80596476D01*
X166620714Y-80691714D01*
X166620714Y-80882190D01*
X166668333Y-80977428D01*
X166763571Y-81025047D01*
X166858809Y-81025047D01*
X166954047Y-80548857D01*
X166335000Y-82739333D02*
X166287380Y-82644095D01*
X166287380Y-82501238D01*
X166335000Y-82358380D01*
X166430238Y-82263142D01*
X166525476Y-82215523D01*
X166715952Y-82167904D01*
X166858809Y-82167904D01*
X167049285Y-82215523D01*
X167144523Y-82263142D01*
X167239761Y-82358380D01*
X167287380Y-82501238D01*
X167287380Y-82596476D01*
X167239761Y-82739333D01*
X167192142Y-82786952D01*
X166858809Y-82786952D01*
X166858809Y-82596476D01*
X167287380Y-83215523D02*
X166620714Y-83215523D01*
X166811190Y-83215523D02*
X166715952Y-83263142D01*
X166668333Y-83310761D01*
X166620714Y-83406000D01*
X166620714Y-83501238D01*
X167287380Y-84263142D02*
X166763571Y-84263142D01*
X166668333Y-84215523D01*
X166620714Y-84120285D01*
X166620714Y-83929809D01*
X166668333Y-83834571D01*
X167239761Y-84263142D02*
X167287380Y-84167904D01*
X167287380Y-83929809D01*
X167239761Y-83834571D01*
X167144523Y-83786952D01*
X167049285Y-83786952D01*
X166954047Y-83834571D01*
X166906428Y-83929809D01*
X166906428Y-84167904D01*
X166858809Y-84263142D01*
X166620714Y-84644095D02*
X167287380Y-84882190D01*
X166620714Y-85120285D02*
X167287380Y-84882190D01*
X167525476Y-84786952D01*
X167573095Y-84739333D01*
X167620714Y-84644095D01*
X167239761Y-85548857D02*
X167287380Y-85548857D01*
X167382619Y-85501238D01*
X167430238Y-85453619D01*
X167897380Y-59525047D02*
X168611666Y-59525047D01*
X168754523Y-59477428D01*
X168849761Y-59382190D01*
X168897380Y-59239333D01*
X168897380Y-59144095D01*
X168897380Y-60429809D02*
X168373571Y-60429809D01*
X168278333Y-60382190D01*
X168230714Y-60286952D01*
X168230714Y-60096476D01*
X168278333Y-60001238D01*
X168849761Y-60429809D02*
X168897380Y-60334571D01*
X168897380Y-60096476D01*
X168849761Y-60001238D01*
X168754523Y-59953619D01*
X168659285Y-59953619D01*
X168564047Y-60001238D01*
X168516428Y-60096476D01*
X168516428Y-60334571D01*
X168468809Y-60429809D01*
X168230714Y-60906000D02*
X168897380Y-60906000D01*
X168325952Y-60906000D02*
X168278333Y-60953619D01*
X168230714Y-61048857D01*
X168230714Y-61191714D01*
X168278333Y-61286952D01*
X168373571Y-61334571D01*
X168897380Y-61334571D01*
X168897380Y-62572666D02*
X167897380Y-62572666D01*
X167897380Y-62953619D01*
X167945000Y-63048857D01*
X167992619Y-63096476D01*
X168087857Y-63144095D01*
X168230714Y-63144095D01*
X168325952Y-63096476D01*
X168373571Y-63048857D01*
X168421190Y-62953619D01*
X168421190Y-62572666D01*
X168849761Y-63953619D02*
X168897380Y-63858380D01*
X168897380Y-63667904D01*
X168849761Y-63572666D01*
X168754523Y-63525047D01*
X168373571Y-63525047D01*
X168278333Y-63572666D01*
X168230714Y-63667904D01*
X168230714Y-63858380D01*
X168278333Y-63953619D01*
X168373571Y-64001238D01*
X168468809Y-64001238D01*
X168564047Y-63525047D01*
X168897380Y-64858380D02*
X167897380Y-64858380D01*
X168849761Y-64858380D02*
X168897380Y-64763142D01*
X168897380Y-64572666D01*
X168849761Y-64477428D01*
X168802142Y-64429809D01*
X168706904Y-64382190D01*
X168421190Y-64382190D01*
X168325952Y-64429809D01*
X168278333Y-64477428D01*
X168230714Y-64572666D01*
X168230714Y-64763142D01*
X168278333Y-64858380D01*
X168849761Y-65715523D02*
X168897380Y-65620285D01*
X168897380Y-65429809D01*
X168849761Y-65334571D01*
X168754523Y-65286952D01*
X168373571Y-65286952D01*
X168278333Y-65334571D01*
X168230714Y-65429809D01*
X168230714Y-65620285D01*
X168278333Y-65715523D01*
X168373571Y-65763142D01*
X168468809Y-65763142D01*
X168564047Y-65286952D01*
X168897380Y-66191714D02*
X168230714Y-66191714D01*
X168421190Y-66191714D02*
X168325952Y-66239333D01*
X168278333Y-66286952D01*
X168230714Y-66382190D01*
X168230714Y-66477428D01*
X168849761Y-66763142D02*
X168897380Y-66858380D01*
X168897380Y-67048857D01*
X168849761Y-67144095D01*
X168754523Y-67191714D01*
X168706904Y-67191714D01*
X168611666Y-67144095D01*
X168564047Y-67048857D01*
X168564047Y-66906000D01*
X168516428Y-66810761D01*
X168421190Y-66763142D01*
X168373571Y-66763142D01*
X168278333Y-66810761D01*
X168230714Y-66906000D01*
X168230714Y-67048857D01*
X168278333Y-67144095D01*
X168849761Y-68001238D02*
X168897380Y-67906000D01*
X168897380Y-67715523D01*
X168849761Y-67620285D01*
X168754523Y-67572666D01*
X168373571Y-67572666D01*
X168278333Y-67620285D01*
X168230714Y-67715523D01*
X168230714Y-67906000D01*
X168278333Y-68001238D01*
X168373571Y-68048857D01*
X168468809Y-68048857D01*
X168564047Y-67572666D01*
X168230714Y-68477428D02*
X168897380Y-68477428D01*
X168325952Y-68477428D02*
X168278333Y-68525047D01*
X168230714Y-68620285D01*
X168230714Y-68763142D01*
X168278333Y-68858380D01*
X168373571Y-68906000D01*
X168897380Y-68906000D01*
X168849761Y-69429809D02*
X168897380Y-69429809D01*
X168992619Y-69382190D01*
X169040238Y-69334571D01*
X168897380Y-71048857D02*
X168373571Y-71048857D01*
X168278333Y-71001238D01*
X168230714Y-70906000D01*
X168230714Y-70715523D01*
X168278333Y-70620285D01*
X168849761Y-71048857D02*
X168897380Y-70953619D01*
X168897380Y-70715523D01*
X168849761Y-70620285D01*
X168754523Y-70572666D01*
X168659285Y-70572666D01*
X168564047Y-70620285D01*
X168516428Y-70715523D01*
X168516428Y-70953619D01*
X168468809Y-71048857D01*
X168230714Y-71525047D02*
X168897380Y-71525047D01*
X168325952Y-71525047D02*
X168278333Y-71572666D01*
X168230714Y-71667904D01*
X168230714Y-71810761D01*
X168278333Y-71906000D01*
X168373571Y-71953619D01*
X168897380Y-71953619D01*
X168897380Y-72858380D02*
X167897380Y-72858380D01*
X168849761Y-72858380D02*
X168897380Y-72763142D01*
X168897380Y-72572666D01*
X168849761Y-72477428D01*
X168802142Y-72429809D01*
X168706904Y-72382190D01*
X168421190Y-72382190D01*
X168325952Y-72429809D01*
X168278333Y-72477428D01*
X168230714Y-72572666D01*
X168230714Y-72763142D01*
X168278333Y-72858380D01*
X167897380Y-74382190D02*
X168611666Y-74382190D01*
X168754523Y-74334571D01*
X168849761Y-74239333D01*
X168897380Y-74096476D01*
X168897380Y-74001238D01*
X168897380Y-75001238D02*
X168849761Y-74906000D01*
X168802142Y-74858380D01*
X168706904Y-74810761D01*
X168421190Y-74810761D01*
X168325952Y-74858380D01*
X168278333Y-74906000D01*
X168230714Y-75001238D01*
X168230714Y-75144095D01*
X168278333Y-75239333D01*
X168325952Y-75286952D01*
X168421190Y-75334571D01*
X168706904Y-75334571D01*
X168802142Y-75286952D01*
X168849761Y-75239333D01*
X168897380Y-75144095D01*
X168897380Y-75001238D01*
X168849761Y-75715523D02*
X168897380Y-75810761D01*
X168897380Y-76001238D01*
X168849761Y-76096476D01*
X168754523Y-76144095D01*
X168706904Y-76144095D01*
X168611666Y-76096476D01*
X168564047Y-76001238D01*
X168564047Y-75858380D01*
X168516428Y-75763142D01*
X168421190Y-75715523D01*
X168373571Y-75715523D01*
X168278333Y-75763142D01*
X168230714Y-75858380D01*
X168230714Y-76001238D01*
X168278333Y-76096476D01*
X168849761Y-76953619D02*
X168897380Y-76858380D01*
X168897380Y-76667904D01*
X168849761Y-76572666D01*
X168754523Y-76525047D01*
X168373571Y-76525047D01*
X168278333Y-76572666D01*
X168230714Y-76667904D01*
X168230714Y-76858380D01*
X168278333Y-76953619D01*
X168373571Y-77001238D01*
X168468809Y-77001238D01*
X168564047Y-76525047D01*
X168230714Y-77286952D02*
X168230714Y-77667904D01*
X168897380Y-77429809D02*
X168040238Y-77429809D01*
X167945000Y-77477428D01*
X167897380Y-77572666D01*
X167897380Y-77667904D01*
X168897380Y-79191714D02*
X168373571Y-79191714D01*
X168278333Y-79144095D01*
X168230714Y-79048857D01*
X168230714Y-78858380D01*
X168278333Y-78763142D01*
X168849761Y-79191714D02*
X168897380Y-79096476D01*
X168897380Y-78858380D01*
X168849761Y-78763142D01*
X168754523Y-78715523D01*
X168659285Y-78715523D01*
X168564047Y-78763142D01*
X168516428Y-78858380D01*
X168516428Y-79096476D01*
X168468809Y-79191714D01*
X168230714Y-79525047D02*
X168230714Y-79906000D01*
X167897380Y-79667904D02*
X168754523Y-79667904D01*
X168849761Y-79715523D01*
X168897380Y-79810761D01*
X168897380Y-79906000D01*
X168897380Y-81001238D02*
X168230714Y-81001238D01*
X167897380Y-81001238D02*
X167945000Y-80953619D01*
X167992619Y-81001238D01*
X167945000Y-81048857D01*
X167897380Y-81001238D01*
X167992619Y-81001238D01*
X168897380Y-81906000D02*
X167897380Y-81906000D01*
X168849761Y-81906000D02*
X168897380Y-81810761D01*
X168897380Y-81620285D01*
X168849761Y-81525047D01*
X168802142Y-81477428D01*
X168706904Y-81429809D01*
X168421190Y-81429809D01*
X168325952Y-81477428D01*
X168278333Y-81525047D01*
X168230714Y-81620285D01*
X168230714Y-81810761D01*
X168278333Y-81906000D01*
X168849761Y-82763142D02*
X168897380Y-82667904D01*
X168897380Y-82477428D01*
X168849761Y-82382190D01*
X168754523Y-82334571D01*
X168373571Y-82334571D01*
X168278333Y-82382190D01*
X168230714Y-82477428D01*
X168230714Y-82667904D01*
X168278333Y-82763142D01*
X168373571Y-82810761D01*
X168468809Y-82810761D01*
X168564047Y-82334571D01*
X167897380Y-83667904D02*
X167897380Y-83477428D01*
X167945000Y-83382190D01*
X167992619Y-83334571D01*
X168135476Y-83239333D01*
X168325952Y-83191714D01*
X168706904Y-83191714D01*
X168802142Y-83239333D01*
X168849761Y-83286952D01*
X168897380Y-83382190D01*
X168897380Y-83572666D01*
X168849761Y-83667904D01*
X168802142Y-83715523D01*
X168706904Y-83763142D01*
X168468809Y-83763142D01*
X168373571Y-83715523D01*
X168325952Y-83667904D01*
X168278333Y-83572666D01*
X168278333Y-83382190D01*
X168325952Y-83286952D01*
X168373571Y-83239333D01*
X168468809Y-83191714D01*
X168230714Y-84620285D02*
X168897380Y-84620285D01*
X167849761Y-84382190D02*
X168564047Y-84144095D01*
X168564047Y-84763142D01*
X168802142Y-85144095D02*
X168849761Y-85191714D01*
X168897380Y-85144095D01*
X168849761Y-85096476D01*
X168802142Y-85144095D01*
X168897380Y-85144095D01*
X168897380Y-85763142D02*
X168849761Y-85667904D01*
X168802142Y-85620285D01*
X168706904Y-85572666D01*
X168421190Y-85572666D01*
X168325952Y-85620285D01*
X168278333Y-85667904D01*
X168230714Y-85763142D01*
X168230714Y-85906000D01*
X168278333Y-86001238D01*
X168325952Y-86048857D01*
X168421190Y-86096476D01*
X168706904Y-86096476D01*
X168802142Y-86048857D01*
X168849761Y-86001238D01*
X168897380Y-85906000D01*
X168897380Y-85763142D01*
X168897380Y-86525047D02*
X168230714Y-86525047D01*
X168421190Y-86525047D02*
X168325952Y-86572666D01*
X168278333Y-86620285D01*
X168230714Y-86715523D01*
X168230714Y-86810761D01*
X168230714Y-87572666D02*
X169040238Y-87572666D01*
X169135476Y-87525047D01*
X169183095Y-87477428D01*
X169230714Y-87382190D01*
X169230714Y-87239333D01*
X169183095Y-87144095D01*
X168849761Y-87572666D02*
X168897380Y-87477428D01*
X168897380Y-87286952D01*
X168849761Y-87191714D01*
X168802142Y-87144095D01*
X168706904Y-87096476D01*
X168421190Y-87096476D01*
X168325952Y-87144095D01*
X168278333Y-87191714D01*
X168230714Y-87286952D01*
X168230714Y-87477428D01*
X168278333Y-87572666D01*
%LPC*%
D11*
%TO.C,R2*%
X201930000Y-59944000D03*
D12*
X201930000Y-49784000D03*
%TD*%
D11*
%TO.C,C3*%
X199136000Y-99274000D03*
X199136000Y-94274000D03*
%TD*%
%TO.C,C7*%
X189992000Y-90932000D03*
X189992000Y-95932000D03*
%TD*%
D13*
%TO.C,EXP1*%
X133482500Y-76287500D03*
D14*
X133610774Y-49617500D03*
X133610774Y-52157500D03*
X133610774Y-54697500D03*
X133610774Y-57237500D03*
X133610774Y-59777500D03*
X133610774Y-62317500D03*
X133610774Y-64857500D03*
X133610774Y-67397500D03*
X133610774Y-69937500D03*
X133610774Y-72477500D03*
X133610774Y-75017500D03*
X133610774Y-77557500D03*
X133610774Y-80097500D03*
X133610774Y-82637500D03*
X133610774Y-85177500D03*
X133610774Y-87717500D03*
X133610774Y-90257500D03*
X133610774Y-92797500D03*
X133610774Y-95337500D03*
X133610774Y-97877500D03*
X133610774Y-100417500D03*
X133610774Y-102957500D03*
%TD*%
D15*
%TO.C,C1*%
X183896000Y-49594888D03*
D11*
X183896000Y-52094888D03*
%TD*%
%TO.C,R3*%
X206248000Y-59944000D03*
D12*
X206248000Y-49784000D03*
%TD*%
D16*
%TO.C,CN1*%
X218892500Y-94707500D03*
D17*
X216352500Y-94707500D03*
X218892500Y-92167500D03*
X216352500Y-92167500D03*
X218892500Y-89627500D03*
X216352500Y-89627500D03*
X218892500Y-87087500D03*
X216352500Y-87087500D03*
X218892500Y-84547500D03*
X216352500Y-84547500D03*
X218892500Y-82007500D03*
X216352500Y-82007500D03*
X218892500Y-79467500D03*
X216352500Y-79467500D03*
X218892500Y-76927500D03*
X216352500Y-76927500D03*
X218892500Y-74387500D03*
X216352500Y-74387500D03*
X218892500Y-71847500D03*
X216352500Y-71847500D03*
X218892500Y-69307500D03*
X216352500Y-69307500D03*
X218892500Y-66767500D03*
X216352500Y-66767500D03*
X218892500Y-64227500D03*
X216352500Y-64227500D03*
X218892500Y-61687500D03*
X216352500Y-61687500D03*
X218892500Y-59147500D03*
X216352500Y-59147500D03*
X218892500Y-56607500D03*
X216352500Y-56607500D03*
X218892500Y-54067500D03*
X216352500Y-54067500D03*
%TD*%
D16*
%TO.C,J2*%
X206771000Y-70866000D03*
D17*
X209311000Y-70866000D03*
X211851000Y-70866000D03*
%TD*%
D11*
%TO.C,C8*%
X162520000Y-64262000D03*
X157520000Y-64262000D03*
%TD*%
D15*
%TO.C,C4*%
X148844000Y-52744379D03*
D11*
X148844000Y-50244379D03*
%TD*%
D15*
%TO.C,U1*%
X147315000Y-67320000D03*
D12*
X147315000Y-69860000D03*
X147315000Y-72400000D03*
X147315000Y-74940000D03*
X147315000Y-77480000D03*
X147315000Y-80020000D03*
X147315000Y-82560000D03*
X147315000Y-85100000D03*
X147315000Y-87640000D03*
X147315000Y-90180000D03*
X147315000Y-92720000D03*
X147315000Y-95260000D03*
X147315000Y-97800000D03*
X147315000Y-100340000D03*
X162555000Y-100340000D03*
X162555000Y-97800000D03*
X162555000Y-95260000D03*
X162555000Y-92720000D03*
X162555000Y-90180000D03*
X162555000Y-87640000D03*
X162555000Y-85100000D03*
X162555000Y-82560000D03*
X162555000Y-80020000D03*
X162555000Y-77480000D03*
X162555000Y-74940000D03*
X162555000Y-72400000D03*
X162555000Y-69860000D03*
X162555000Y-67320000D03*
%TD*%
D15*
%TO.C,U3*%
X171460000Y-81275000D03*
D12*
X171460000Y-83815000D03*
X171460000Y-86355000D03*
X171460000Y-88895000D03*
X171460000Y-91435000D03*
X171460000Y-93975000D03*
X171460000Y-96515000D03*
X179080000Y-96515000D03*
X179080000Y-93975000D03*
X179080000Y-91435000D03*
X179080000Y-88895000D03*
X179080000Y-86355000D03*
X179080000Y-83815000D03*
X179080000Y-81275000D03*
%TD*%
D11*
%TO.C,C2*%
X202438000Y-99274000D03*
X202438000Y-94274000D03*
%TD*%
%TO.C,R5*%
X210566000Y-59944000D03*
D12*
X210566000Y-49784000D03*
%TD*%
D11*
%TO.C,C5*%
X182118000Y-90210000D03*
X182118000Y-95210000D03*
%TD*%
D16*
%TO.C,J4*%
X206771000Y-78486000D03*
D17*
X209311000Y-78486000D03*
X211851000Y-78486000D03*
%TD*%
D18*
%TO.C,Q1*%
X194564000Y-94070000D03*
X194564000Y-98950000D03*
%TD*%
D19*
%TO.C,U4*%
X193802000Y-69596000D03*
D20*
X191262000Y-67056000D03*
X191262000Y-69596000D03*
X188722000Y-67056000D03*
X188722000Y-69596000D03*
X186182000Y-67056000D03*
X183642000Y-69596000D03*
X186182000Y-69596000D03*
X183642000Y-72136000D03*
X186182000Y-72136000D03*
X183642000Y-74676000D03*
X186182000Y-74676000D03*
X183642000Y-77216000D03*
X186182000Y-77216000D03*
X183642000Y-79756000D03*
X186182000Y-79756000D03*
X183642000Y-82296000D03*
X186182000Y-84836000D03*
X186182000Y-82296000D03*
X188722000Y-84836000D03*
X188722000Y-82296000D03*
X191262000Y-84836000D03*
X191262000Y-82296000D03*
X193802000Y-84836000D03*
X193802000Y-82296000D03*
X196342000Y-84836000D03*
X196342000Y-82296000D03*
X198882000Y-84836000D03*
X201422000Y-82296000D03*
X198882000Y-82296000D03*
X201422000Y-79756000D03*
X198882000Y-79756000D03*
X201422000Y-77216000D03*
X198882000Y-77216000D03*
X201422000Y-74676000D03*
X198882000Y-74676000D03*
X201422000Y-72136000D03*
X198882000Y-72136000D03*
X201422000Y-69596000D03*
X198882000Y-67056000D03*
X198882000Y-69596000D03*
X196342000Y-67056000D03*
X196342000Y-69596000D03*
X193802000Y-67056000D03*
%TD*%
D16*
%TO.C,J1*%
X206771000Y-74676000D03*
D17*
X209311000Y-74676000D03*
X211851000Y-74676000D03*
%TD*%
D11*
%TO.C,R4*%
X193294000Y-49784000D03*
D12*
X193294000Y-59944000D03*
%TD*%
D11*
%TO.C,C9*%
X144780000Y-53380000D03*
X144780000Y-58380000D03*
%TD*%
%TO.C,R1*%
X197612000Y-59944000D03*
D12*
X197612000Y-49784000D03*
%TD*%
D11*
%TO.C,C6*%
X166116000Y-51856000D03*
X166116000Y-56856000D03*
%TD*%
D15*
%TO.C,U2*%
X171460000Y-50795000D03*
D12*
X171460000Y-53335000D03*
X171460000Y-55875000D03*
X171460000Y-58415000D03*
X171460000Y-60955000D03*
X171460000Y-63495000D03*
X171460000Y-66035000D03*
X179080000Y-66035000D03*
X179080000Y-63495000D03*
X179080000Y-60955000D03*
X179080000Y-58415000D03*
X179080000Y-55875000D03*
X179080000Y-53335000D03*
X179080000Y-50795000D03*
%TD*%
D16*
%TO.C,J3*%
X206756000Y-82296000D03*
D17*
X209296000Y-82296000D03*
X211836000Y-82296000D03*
%TD*%
M02*
