M48
; DRILL file {KiCad (6.0.0)} date Sun Mar 13 19:40:47 2022
; FORMAT={-:-/ absolute / metric / decimal}
; #@! TF.CreationDate,2022-03-13T19:40:47-04:00
; #@! TF.GenerationSoftware,Kicad,Pcbnew,(6.0.0)
; #@! TF.FileFunction,Plated,1,2,PTH
FMAT,2
METRIC
; #@! TA.AperFunction,Plated,PTH,ViaDrill
T1C0.400
; #@! TA.AperFunction,Plated,PTH,ComponentDrill
T2C0.800
; #@! TA.AperFunction,Plated,PTH,ComponentDrill
T3C1.000
%
G90
G05
T1
X139.446Y-102.87
X140.208Y-49.53
X140.716Y-73.914
X141.644Y-59.777
X141.732Y-73.152
X142.494Y-60.706
X144.272Y-72.136
X147.828Y-103.632
X158.994Y-82.56
X180.848Y-74.168
X182.118Y-73.152
X184.912Y-75.692
X188.468Y-72.644
X188.976Y-79.502
X192.024Y-78.74
X196.596Y-75.184
T2
X144.78Y-53.38
X144.78Y-58.38
X147.315Y-67.32
X147.315Y-69.86
X147.315Y-72.4
X147.315Y-74.94
X147.315Y-77.48
X147.315Y-80.02
X147.315Y-82.56
X147.315Y-85.1
X147.315Y-87.64
X147.315Y-90.18
X147.315Y-92.72
X147.315Y-95.26
X147.315Y-97.8
X147.315Y-100.34
X148.844Y-50.244
X148.844Y-52.744
X157.52Y-64.262
X162.52Y-64.262
X162.555Y-67.32
X162.555Y-69.86
X162.555Y-72.4
X162.555Y-74.94
X162.555Y-77.48
X162.555Y-80.02
X162.555Y-82.56
X162.555Y-85.1
X162.555Y-87.64
X162.555Y-90.18
X162.555Y-92.72
X162.555Y-95.26
X162.555Y-97.8
X162.555Y-100.34
X166.116Y-51.856
X166.116Y-56.856
X171.46Y-50.795
X171.46Y-53.335
X171.46Y-55.875
X171.46Y-58.415
X171.46Y-60.955
X171.46Y-63.495
X171.46Y-66.035
X171.46Y-81.275
X171.46Y-83.815
X171.46Y-86.355
X171.46Y-88.895
X171.46Y-91.435
X171.46Y-93.975
X171.46Y-96.515
X179.08Y-50.795
X179.08Y-53.335
X179.08Y-55.875
X179.08Y-58.415
X179.08Y-60.955
X179.08Y-63.495
X179.08Y-66.035
X179.08Y-81.275
X179.08Y-83.815
X179.08Y-86.355
X179.08Y-88.895
X179.08Y-91.435
X179.08Y-93.975
X179.08Y-96.515
X182.118Y-90.21
X182.118Y-95.21
X183.642Y-69.596
X183.642Y-72.136
X183.642Y-74.676
X183.642Y-77.216
X183.642Y-79.756
X183.642Y-82.296
X183.896Y-49.595
X183.896Y-52.095
X186.182Y-67.056
X186.182Y-69.596
X186.182Y-72.136
X186.182Y-74.676
X186.182Y-77.216
X186.182Y-79.756
X186.182Y-82.296
X186.182Y-84.836
X188.722Y-67.056
X188.722Y-69.596
X188.722Y-82.296
X188.722Y-84.836
X189.992Y-90.932
X189.992Y-95.932
X191.262Y-67.056
X191.262Y-69.596
X191.262Y-82.296
X191.262Y-84.836
X193.294Y-49.784
X193.294Y-59.944
X193.802Y-67.056
X193.802Y-69.596
X193.802Y-82.296
X193.802Y-84.836
X194.564Y-94.07
X194.564Y-98.95
X196.342Y-67.056
X196.342Y-69.596
X196.342Y-82.296
X196.342Y-84.836
X197.612Y-49.784
X197.612Y-59.944
X198.882Y-67.056
X198.882Y-69.596
X198.882Y-72.136
X198.882Y-74.676
X198.882Y-77.216
X198.882Y-79.756
X198.882Y-82.296
X198.882Y-84.836
X199.136Y-94.274
X199.136Y-99.274
X201.422Y-69.596
X201.422Y-72.136
X201.422Y-74.676
X201.422Y-77.216
X201.422Y-79.756
X201.422Y-82.296
X201.93Y-49.784
X201.93Y-59.944
X202.438Y-94.274
X202.438Y-99.274
X206.248Y-49.784
X206.248Y-59.944
X210.566Y-49.784
X210.566Y-59.944
T3
X206.756Y-82.296
X206.771Y-70.866
X206.771Y-74.676
X206.771Y-78.486
X209.296Y-82.296
X209.311Y-70.866
X209.311Y-74.676
X209.311Y-78.486
X211.836Y-82.296
X211.851Y-70.866
X211.851Y-74.676
X211.851Y-78.486
X216.352Y-54.067
X216.352Y-56.607
X216.352Y-59.148
X216.352Y-61.688
X216.352Y-64.227
X216.352Y-66.767
X216.352Y-69.307
X216.352Y-71.847
X216.352Y-74.388
X216.352Y-76.927
X216.352Y-79.468
X216.352Y-82.007
X216.352Y-84.547
X216.352Y-87.087
X216.352Y-89.627
X216.352Y-92.167
X216.352Y-94.707
X218.892Y-54.067
X218.892Y-56.607
X218.892Y-59.148
X218.892Y-61.688
X218.892Y-64.227
X218.892Y-66.767
X218.892Y-69.307
X218.892Y-71.847
X218.892Y-74.388
X218.892Y-76.927
X218.892Y-79.468
X218.892Y-82.007
X218.892Y-84.547
X218.892Y-87.087
X218.892Y-89.627
X218.892Y-92.167
X218.892Y-94.707
T0
M30
