%FSLAX45Y45*%
G04 Gerber Fmt 4.5, Leading zero omitted, Abs format (unit mm)*
G04 Created by KiCad (PCBNEW (6.0.0)) date 2022-03-13 19:40:48*
%MOMM*%
%LPD*%
G01*
G04 APERTURE LIST*
%TA.AperFunction,Profile*%
%ADD10C,0.100000*%
%TD*%
%ADD11C,0.200000*%
%ADD12C,0.482600*%
G04 APERTURE END LIST*
D10*
X22110250Y-4707750D02*
X12967250Y-4707750D01*
X12967250Y-10549750D02*
X22110250Y-10549750D01*
X12967250Y-4707750D02*
X12967250Y-10549750D01*
X22110250Y-10549750D02*
X22110250Y-4707750D01*
D11*
D12*
X17170950Y-7362050D02*
X17653550Y-7844650D01*
X17653550Y-7362050D02*
X17170950Y-7844650D01*
D11*
X13219869Y-10865226D02*
X13219869Y-10665226D01*
X13267488Y-10665226D01*
X13296059Y-10674750D01*
X13315107Y-10693798D01*
X13324631Y-10712845D01*
X13334155Y-10750940D01*
X13334155Y-10779512D01*
X13324631Y-10817607D01*
X13315107Y-10836655D01*
X13296059Y-10855702D01*
X13267488Y-10865226D01*
X13219869Y-10865226D01*
X13419869Y-10865226D02*
X13419869Y-10731893D01*
X13419869Y-10769988D02*
X13429393Y-10750940D01*
X13438917Y-10741417D01*
X13457964Y-10731893D01*
X13477012Y-10731893D01*
X13543678Y-10865226D02*
X13543678Y-10731893D01*
X13543678Y-10665226D02*
X13534155Y-10674750D01*
X13543678Y-10684274D01*
X13553202Y-10674750D01*
X13543678Y-10665226D01*
X13543678Y-10684274D01*
X13667488Y-10865226D02*
X13648440Y-10855702D01*
X13638917Y-10836655D01*
X13638917Y-10665226D01*
X13772250Y-10865226D02*
X13753202Y-10855702D01*
X13743678Y-10836655D01*
X13743678Y-10665226D01*
X14000821Y-10865226D02*
X14000821Y-10665226D01*
X14067488Y-10808083D01*
X14134155Y-10665226D01*
X14134155Y-10865226D01*
X14315107Y-10865226D02*
X14315107Y-10760464D01*
X14305583Y-10741417D01*
X14286536Y-10731893D01*
X14248440Y-10731893D01*
X14229393Y-10741417D01*
X14315107Y-10855702D02*
X14296059Y-10865226D01*
X14248440Y-10865226D01*
X14229393Y-10855702D01*
X14219869Y-10836655D01*
X14219869Y-10817607D01*
X14229393Y-10798560D01*
X14248440Y-10789036D01*
X14296059Y-10789036D01*
X14315107Y-10779512D01*
X14410345Y-10731893D02*
X14410345Y-10931893D01*
X14410345Y-10741417D02*
X14429393Y-10731893D01*
X14467488Y-10731893D01*
X14486536Y-10741417D01*
X14496059Y-10750940D01*
X14505583Y-10769988D01*
X14505583Y-10827131D01*
X14496059Y-10846179D01*
X14486536Y-10855702D01*
X14467488Y-10865226D01*
X14429393Y-10865226D01*
X14410345Y-10855702D01*
X14591298Y-10846179D02*
X14600821Y-10855702D01*
X14591298Y-10865226D01*
X14581774Y-10855702D01*
X14591298Y-10846179D01*
X14591298Y-10865226D01*
X14591298Y-10741417D02*
X14600821Y-10750940D01*
X14591298Y-10760464D01*
X14581774Y-10750940D01*
X14591298Y-10741417D01*
X14591298Y-10760464D01*
X12762250Y-11094750D02*
X12962250Y-11294750D01*
X12962250Y-11094750D02*
X12762250Y-11294750D01*
X13305583Y-11151893D02*
X13305583Y-11285226D01*
X13257964Y-11075702D02*
X13210345Y-11218559D01*
X13334155Y-11218559D01*
X13410345Y-11266178D02*
X13419869Y-11275702D01*
X13410345Y-11285226D01*
X13400821Y-11275702D01*
X13410345Y-11266178D01*
X13410345Y-11285226D01*
X13534155Y-11170940D02*
X13515107Y-11161417D01*
X13505583Y-11151893D01*
X13496059Y-11132845D01*
X13496059Y-11123321D01*
X13505583Y-11104274D01*
X13515107Y-11094750D01*
X13534155Y-11085226D01*
X13572250Y-11085226D01*
X13591298Y-11094750D01*
X13600821Y-11104274D01*
X13610345Y-11123321D01*
X13610345Y-11132845D01*
X13600821Y-11151893D01*
X13591298Y-11161417D01*
X13572250Y-11170940D01*
X13534155Y-11170940D01*
X13515107Y-11180464D01*
X13505583Y-11189988D01*
X13496059Y-11209036D01*
X13496059Y-11247131D01*
X13505583Y-11266178D01*
X13515107Y-11275702D01*
X13534155Y-11285226D01*
X13572250Y-11285226D01*
X13591298Y-11275702D01*
X13600821Y-11266178D01*
X13610345Y-11247131D01*
X13610345Y-11209036D01*
X13600821Y-11189988D01*
X13591298Y-11180464D01*
X13572250Y-11170940D01*
X13686536Y-11104274D02*
X13696059Y-11094750D01*
X13715107Y-11085226D01*
X13762726Y-11085226D01*
X13781774Y-11094750D01*
X13791298Y-11104274D01*
X13800821Y-11123321D01*
X13800821Y-11142369D01*
X13791298Y-11170940D01*
X13677012Y-11285226D01*
X13800821Y-11285226D01*
X13972250Y-11085226D02*
X13934155Y-11085226D01*
X13915107Y-11094750D01*
X13905583Y-11104274D01*
X13886536Y-11132845D01*
X13877012Y-11170940D01*
X13877012Y-11247131D01*
X13886536Y-11266178D01*
X13896059Y-11275702D01*
X13915107Y-11285226D01*
X13953202Y-11285226D01*
X13972250Y-11275702D01*
X13981774Y-11266178D01*
X13991298Y-11247131D01*
X13991298Y-11199512D01*
X13981774Y-11180464D01*
X13972250Y-11170940D01*
X13953202Y-11161417D01*
X13915107Y-11161417D01*
X13896059Y-11170940D01*
X13886536Y-11180464D01*
X13877012Y-11199512D01*
X14077012Y-11285226D02*
X14077012Y-11151893D01*
X14077012Y-11170940D02*
X14086536Y-11161417D01*
X14105583Y-11151893D01*
X14134155Y-11151893D01*
X14153202Y-11161417D01*
X14162726Y-11180464D01*
X14162726Y-11285226D01*
X14162726Y-11180464D02*
X14172250Y-11161417D01*
X14191298Y-11151893D01*
X14219869Y-11151893D01*
X14238917Y-11161417D01*
X14248440Y-11180464D01*
X14248440Y-11285226D01*
X14343678Y-11285226D02*
X14343678Y-11151893D01*
X14343678Y-11170940D02*
X14353202Y-11161417D01*
X14372250Y-11151893D01*
X14400821Y-11151893D01*
X14419869Y-11161417D01*
X14429393Y-11180464D01*
X14429393Y-11285226D01*
X14429393Y-11180464D02*
X14438917Y-11161417D01*
X14457964Y-11151893D01*
X14486536Y-11151893D01*
X14505583Y-11161417D01*
X14515107Y-11180464D01*
X14515107Y-11285226D01*
X14905583Y-11075702D02*
X14734155Y-11332845D01*
X15162726Y-11085226D02*
X15181774Y-11085226D01*
X15200821Y-11094750D01*
X15210345Y-11104274D01*
X15219869Y-11123321D01*
X15229393Y-11161417D01*
X15229393Y-11209036D01*
X15219869Y-11247131D01*
X15210345Y-11266178D01*
X15200821Y-11275702D01*
X15181774Y-11285226D01*
X15162726Y-11285226D01*
X15143678Y-11275702D01*
X15134155Y-11266178D01*
X15124631Y-11247131D01*
X15115107Y-11209036D01*
X15115107Y-11161417D01*
X15124631Y-11123321D01*
X15134155Y-11104274D01*
X15143678Y-11094750D01*
X15162726Y-11085226D01*
X15315107Y-11266178D02*
X15324631Y-11275702D01*
X15315107Y-11285226D01*
X15305583Y-11275702D01*
X15315107Y-11266178D01*
X15315107Y-11285226D01*
X15515107Y-11285226D02*
X15400821Y-11285226D01*
X15457964Y-11285226D02*
X15457964Y-11085226D01*
X15438917Y-11113798D01*
X15419869Y-11132845D01*
X15400821Y-11142369D01*
X15610345Y-11285226D02*
X15648440Y-11285226D01*
X15667488Y-11275702D01*
X15677012Y-11266178D01*
X15696059Y-11237607D01*
X15705583Y-11199512D01*
X15705583Y-11123321D01*
X15696059Y-11104274D01*
X15686536Y-11094750D01*
X15667488Y-11085226D01*
X15629393Y-11085226D01*
X15610345Y-11094750D01*
X15600821Y-11104274D01*
X15591298Y-11123321D01*
X15591298Y-11170940D01*
X15600821Y-11189988D01*
X15610345Y-11199512D01*
X15629393Y-11209036D01*
X15667488Y-11209036D01*
X15686536Y-11199512D01*
X15696059Y-11189988D01*
X15705583Y-11170940D01*
X15829393Y-11085226D02*
X15848440Y-11085226D01*
X15867488Y-11094750D01*
X15877012Y-11104274D01*
X15886536Y-11123321D01*
X15896059Y-11161417D01*
X15896059Y-11209036D01*
X15886536Y-11247131D01*
X15877012Y-11266178D01*
X15867488Y-11275702D01*
X15848440Y-11285226D01*
X15829393Y-11285226D01*
X15810345Y-11275702D01*
X15800821Y-11266178D01*
X15791298Y-11247131D01*
X15781774Y-11209036D01*
X15781774Y-11161417D01*
X15791298Y-11123321D01*
X15800821Y-11104274D01*
X15810345Y-11094750D01*
X15829393Y-11085226D01*
X16019869Y-11085226D02*
X16038917Y-11085226D01*
X16057964Y-11094750D01*
X16067488Y-11104274D01*
X16077012Y-11123321D01*
X16086536Y-11161417D01*
X16086536Y-11209036D01*
X16077012Y-11247131D01*
X16067488Y-11266178D01*
X16057964Y-11275702D01*
X16038917Y-11285226D01*
X16019869Y-11285226D01*
X16000821Y-11275702D01*
X15991298Y-11266178D01*
X15981774Y-11247131D01*
X15972250Y-11209036D01*
X15972250Y-11161417D01*
X15981774Y-11123321D01*
X15991298Y-11104274D01*
X16000821Y-11094750D01*
X16019869Y-11085226D01*
X16162726Y-11085226D02*
X16162726Y-11123321D01*
X16238917Y-11085226D02*
X16238917Y-11123321D01*
X16534155Y-11361417D02*
X16524631Y-11351893D01*
X16505583Y-11323321D01*
X16496059Y-11304274D01*
X16486536Y-11275702D01*
X16477012Y-11228083D01*
X16477012Y-11189988D01*
X16486536Y-11142369D01*
X16496059Y-11113798D01*
X16505583Y-11094750D01*
X16524631Y-11066179D01*
X16534155Y-11056655D01*
X16715107Y-11285226D02*
X16600821Y-11285226D01*
X16657964Y-11285226D02*
X16657964Y-11085226D01*
X16638917Y-11113798D01*
X16619869Y-11132845D01*
X16600821Y-11142369D01*
X16953202Y-11285226D02*
X16953202Y-11085226D01*
X17038917Y-11285226D02*
X17038917Y-11180464D01*
X17029393Y-11161417D01*
X17010345Y-11151893D01*
X16981774Y-11151893D01*
X16962726Y-11161417D01*
X16953202Y-11170940D01*
X17162726Y-11285226D02*
X17143679Y-11275702D01*
X17134155Y-11266178D01*
X17124631Y-11247131D01*
X17124631Y-11189988D01*
X17134155Y-11170940D01*
X17143679Y-11161417D01*
X17162726Y-11151893D01*
X17191298Y-11151893D01*
X17210345Y-11161417D01*
X17219869Y-11170940D01*
X17229393Y-11189988D01*
X17229393Y-11247131D01*
X17219869Y-11266178D01*
X17210345Y-11275702D01*
X17191298Y-11285226D01*
X17162726Y-11285226D01*
X17343679Y-11285226D02*
X17324631Y-11275702D01*
X17315107Y-11256655D01*
X17315107Y-11085226D01*
X17496060Y-11275702D02*
X17477012Y-11285226D01*
X17438917Y-11285226D01*
X17419869Y-11275702D01*
X17410345Y-11256655D01*
X17410345Y-11180464D01*
X17419869Y-11161417D01*
X17438917Y-11151893D01*
X17477012Y-11151893D01*
X17496060Y-11161417D01*
X17505583Y-11180464D01*
X17505583Y-11199512D01*
X17410345Y-11218559D01*
X17572250Y-11361417D02*
X17581774Y-11351893D01*
X17600821Y-11323321D01*
X17610345Y-11304274D01*
X17619869Y-11275702D01*
X17629393Y-11228083D01*
X17629393Y-11189988D01*
X17619869Y-11142369D01*
X17610345Y-11113798D01*
X17600821Y-11094750D01*
X17581774Y-11066179D01*
X17572250Y-11056655D01*
X17934155Y-11361417D02*
X17924631Y-11351893D01*
X17905583Y-11323321D01*
X17896060Y-11304274D01*
X17886536Y-11275702D01*
X17877012Y-11228083D01*
X17877012Y-11189988D01*
X17886536Y-11142369D01*
X17896060Y-11113798D01*
X17905583Y-11094750D01*
X17924631Y-11066179D01*
X17934155Y-11056655D01*
X18010345Y-11151893D02*
X18010345Y-11285226D01*
X18010345Y-11170940D02*
X18019869Y-11161417D01*
X18038917Y-11151893D01*
X18067488Y-11151893D01*
X18086536Y-11161417D01*
X18096060Y-11180464D01*
X18096060Y-11285226D01*
X18219869Y-11285226D02*
X18200821Y-11275702D01*
X18191298Y-11266178D01*
X18181774Y-11247131D01*
X18181774Y-11189988D01*
X18191298Y-11170940D01*
X18200821Y-11161417D01*
X18219869Y-11151893D01*
X18248440Y-11151893D01*
X18267488Y-11161417D01*
X18277012Y-11170940D01*
X18286536Y-11189988D01*
X18286536Y-11247131D01*
X18277012Y-11266178D01*
X18267488Y-11275702D01*
X18248440Y-11285226D01*
X18219869Y-11285226D01*
X18343679Y-11151893D02*
X18419869Y-11151893D01*
X18372250Y-11085226D02*
X18372250Y-11256655D01*
X18381774Y-11275702D01*
X18400821Y-11285226D01*
X18419869Y-11285226D01*
X18638917Y-11151893D02*
X18638917Y-11351893D01*
X18638917Y-11161417D02*
X18657964Y-11151893D01*
X18696060Y-11151893D01*
X18715107Y-11161417D01*
X18724631Y-11170940D01*
X18734155Y-11189988D01*
X18734155Y-11247131D01*
X18724631Y-11266178D01*
X18715107Y-11275702D01*
X18696060Y-11285226D01*
X18657964Y-11285226D01*
X18638917Y-11275702D01*
X18848440Y-11285226D02*
X18829393Y-11275702D01*
X18819869Y-11256655D01*
X18819869Y-11085226D01*
X19010345Y-11285226D02*
X19010345Y-11180464D01*
X19000821Y-11161417D01*
X18981774Y-11151893D01*
X18943679Y-11151893D01*
X18924631Y-11161417D01*
X19010345Y-11275702D02*
X18991298Y-11285226D01*
X18943679Y-11285226D01*
X18924631Y-11275702D01*
X18915107Y-11256655D01*
X18915107Y-11237607D01*
X18924631Y-11218559D01*
X18943679Y-11209036D01*
X18991298Y-11209036D01*
X19010345Y-11199512D01*
X19077012Y-11151893D02*
X19153202Y-11151893D01*
X19105583Y-11085226D02*
X19105583Y-11256655D01*
X19115107Y-11275702D01*
X19134155Y-11285226D01*
X19153202Y-11285226D01*
X19296060Y-11275702D02*
X19277012Y-11285226D01*
X19238917Y-11285226D01*
X19219869Y-11275702D01*
X19210345Y-11256655D01*
X19210345Y-11180464D01*
X19219869Y-11161417D01*
X19238917Y-11151893D01*
X19277012Y-11151893D01*
X19296060Y-11161417D01*
X19305583Y-11180464D01*
X19305583Y-11199512D01*
X19210345Y-11218559D01*
X19477012Y-11285226D02*
X19477012Y-11085226D01*
X19477012Y-11275702D02*
X19457964Y-11285226D01*
X19419869Y-11285226D01*
X19400821Y-11275702D01*
X19391298Y-11266178D01*
X19381774Y-11247131D01*
X19381774Y-11189988D01*
X19391298Y-11170940D01*
X19400821Y-11161417D01*
X19419869Y-11151893D01*
X19457964Y-11151893D01*
X19477012Y-11161417D01*
X19553202Y-11361417D02*
X19562726Y-11351893D01*
X19581774Y-11323321D01*
X19591298Y-11304274D01*
X19600821Y-11275702D01*
X19610345Y-11228083D01*
X19610345Y-11189988D01*
X19600821Y-11142369D01*
X19591298Y-11113798D01*
X19581774Y-11094750D01*
X19562726Y-11066179D01*
X19553202Y-11056655D01*
M02*
